<svg enable-background="new 0 0 51.309 57.587" viewBox="0 0 51.309 57.587" xmlns="http://www.w3.org/2000/svg"><g fill="none" stroke="#9b9b9b" stroke-miterlimit="10" stroke-width="1.156"><circle cx="19.698" cy="7.833" r="2.269"/><circle cx="9.336" cy="44.591" r="2.269"/><circle cx="47.478" cy="35.328" r="2.269"/><path d="m25.654 1.502c-1.841 0-3.556 1.569-5 4.275.775.361 1.313 1.145 1.313 2.056 0 1.253-1.016 2.269-2.269 2.269-.273 0-.534-.051-.777-.139-1.592 4.898-2.569 11.529-2.569 18.83 0 15.073 4.165 27.292 9.302 27.292s9.302-12.219 9.302-27.292-4.164-27.291-9.302-27.291z"/><path d="m47.478 37.597c-1.253 0-2.269-1.016-2.269-2.269 0-.794.409-1.492 1.027-1.898-3.392-4.105-9.023-8.704-15.931-12.692-13.053-7.536-25.717-10.039-28.286-5.59-2.569 4.449 5.931 14.165 18.984 21.701s25.717 10.039 28.286 5.59c.774-1.34.542-3.159-.515-5.251-.367.257-.813.409-1.296.409z"/><path d="m49.29 15.148c-2.569-4.449-15.233-1.946-28.286 5.59s-21.553 17.252-18.985 21.701c.8 1.386 2.581 2.097 5.048 2.192.006-1.248 1.019-2.258 2.269-2.258 1.123 0 2.053.817 2.235 1.888 5.22-.919 11.924-3.48 18.734-7.412 13.054-7.536 21.553-17.252 18.985-21.701z"/></g></svg>