<svg enable-background="new 0 0 41.654 55.176" viewBox="0 0 41.654 55.176" xmlns="http://www.w3.org/2000/svg"><g stroke="#9b9b9b" stroke-miterlimit="10"><circle cx="21.043" cy="13.143" fill="none" r="6.886" stroke-width="1.1538"/><path d="m25.847 18.522 13.821 29.638-1.886.88-1.886.879-13.821-29.638" fill="none" stroke-width="1.1538"/><path d="m36.064 51.254 4.221 3.153.298-5.26z" fill="#9b9b9b" stroke-width=".2308"/><path d="m3.324 49.137-1.657 3.554.046.022.051 1.773 1.391-1.101.046.022 1.657-3.554z" fill="#9b9b9b" stroke-width=".1"/><g fill="none" stroke-width="1.1538"><path d="m30.199 37.703s-10.516 7.254-25.017-1.175c0 0-4.11-2.012-2.136-4.226 1.381-1.643 4.789.615 4.789.615 12.96 6.804 20.411.778 20.411.778z"/><path d="m12.737 35.002 6.946-14.896-3.1-1.446-7.039 15.095c1.109.507 2.173.917 3.193 1.247z"/><path d="m7.644 37.829-4.882 10.47 1.55.723 1.55.723 4.947-10.61c-1.026-.357-2.082-.789-3.165-1.306z"/><path d="m21.043 6.257c.418 0 .827.039 1.225.111v-4.985c0-.382-.31-.692-.692-.692h-1.066c-.382 0-.692.31-.692.692v4.985c.397-.072.806-.111 1.225-.111z"/></g></g></svg>