<svg enable-background="new 0 0 213.533 61.894" viewBox="0 0 213.533 61.894" xmlns="http://www.w3.org/2000/svg"><g fill="#fff"><path d="m189.829 5.136v2.937c7.541.873 9.208 3.651 9.208 11.032v23.21h-.394l-28.261-37.18h-16.748-20.257v2.937c7.541.873 9.207 3.651 9.207 11.032v19.763c0 5.953-1.191 8.89-3.809 11.589-2.223 2.222-5.239 3.413-9.128 3.413-8.493 0-13.731-3.969-13.731-13.255v-29.05c0-2.619 1.429-3.175 6.906-3.413v-3.016c-1.365 0-2.73 0-4.095 0-3.247 0-6.494 0-9.741 0-3.864 0-7.729 0-11.593 0-2.972 0-3.769-.002-6.741 0-1.63.001-4.992.01-6.608-.239-1.652-.254-3.598-.982-5.233-1.288-1.813-.338-3.668-.438-5.511-.438-10.22 0-17.126 7.294-17.126 17.296 0 9.763 7.938 12.858 15.954 15.398 9.128 3.016 12.621 5.08 12.621 10.556 0 4.207-2.858 8.89-9.763 8.89-6.589 0-11.496-4.027-15.545-12.995h-3.901v16.407h3.371l2.662-2.38c3.095 1.507 8.016 2.38 12.302 2.38 13.414 0 18.653-8.969 18.653-17.78 0-9.843-7.779-12.938-15.081-15.319-8.731-2.778-12.621-4.524-12.621-9.922 0-5.159 3.571-8.334 8.413-8.334 5.794 0 10.653 2.002 13.248 9.379h3.334v-1.446c0-3.866 2.929-7.084 7.571-7.084s7.571 3.217 7.571 7.084v9.055 14.735 1.924c0 11.667 8.096 17.62 21.431 17.62 13.334 0 20.241-7.699 20.241-17.938v-25.396c0-3.866 2.907-7.112 7.548-7.112s7.549 3.246 7.549 7.112v28.015c0 7.54-1.032 10.08-8.096 11.112v2.937h20.558v-2.937c-7.621-.952-8.573-3.651-8.573-11.112v-26.574l.29.01 31.813 41.973h5.201v-39.618c0-7.382.555-10.001 7.62-11.032v-2.938z"/><path d="m32.171 53.766c-8.396 0-17.111-7.596-17.111-23.427 0-15.432 7.196-23.348 15.352-23.348 6.956 0 12.233 5.837 15.431 15.513h3.598v-18.951h-3.198l-2.319 3.437c-3.278-1.838-8.235-3.437-13.273-3.437-15.672 0-27.665 11.914-27.665 28.064 0 15.753 9.675 27.106 26.306 27.106 11.434 0 18.554-6.341 22.308-14.968l-3.038-1.439c-3.758 7.597-8.955 11.45-16.391 11.45z"/></g></svg>