<svg enable-background="new 0 0 70.843 46.111" viewBox="0 0 70.843 46.111" xmlns="http://www.w3.org/2000/svg"><g fill="none" stroke="#9b9b9b" stroke-miterlimit="10" stroke-width="1.1563"><path d="m5.722 44.607-4.282-8.298c-.175-.339-.041-.76.298-.935l3.021-.352c.271-.14.608-.033.748.239l3.426 6.638c.14.271.033.608-.239.748l-2.037 2.258c-.34.175-.76.041-.935-.298z"/><path d="m29.234 33.093-4.788-9.277c-.142-.275-.033-.615.242-.757l2.435-1.618c.29-.15.65-.035.799.255l5.054 9.793c.15.29.035.65-.255.799l-2.729 1.047c-.276.141-.617.033-.758-.242z"/><path d="m46.496 25.876-6.166-11.949c-.142-.275-.033-.615.242-.757l3.317-2.167c.29-.15.65-.035.799.255l6.509 12.613c.15.29.035.65-.255.799l-3.688 1.448c-.275.141-.616.032-.758-.242z"/><path d="m5.345 34.949 19.621-10.126"/><path d="m40.4 14.063-13.456 7.47"/><path d="m51.494 24.4 17.071-8.222c.935-.454 1.312-1.589.835-2.512l-5.848-11.333c-.475-.921-1.615-1.272-2.526-.778l-16.585 9.178z"/><path d="m9.093 42.211 19.621-10.126"/><path d="m46.426 25.739-13.884 6.64"/></g></svg>