<svg enable-background="new 0 0 150 150" viewBox="0 0 150 150" xmlns="http://www.w3.org/2000/svg"><g fill="#fff"><path d="m142.211 142.212h-134.422v-134.424h134.422zm-132.021-2.4h129.621v-129.624h-129.621z"/><path d="m48.289 69.978v-12.975l-4.25 8.442h-2.938l-4.284-8.442v12.975h-4.346v-22.258h4.287l5.811 12.031 5.785-12.031h4.281v22.258z"/><path d="m61.354 69.978v-22.258h14.662v3.875h-10.319v5.219h8.785v3.88h-8.785v5.407h10.319v3.877z"/><path d="m92.945 51.595v18.383h-4.346v-18.383h-5.816v-3.875h15.977v3.875z"/><path d="m111.734 54.282-2.815 8.096h5.53zm5.188 15.696-1.312-3.941h-7.908l-1.347 3.941h-4.532l8.101-22.258h3.406l8.127 22.258z"/><path d="m61.626 102.851v-22.258h4.343v18.381h10.095v3.877z"/><path d="m90.568 87.154-2.812 8.102h5.529zm5.188 15.697-1.314-3.941h-7.905l-1.345 3.941h-4.533l8.097-22.258h3.408l8.126 22.258z"/><path d="m114.591 93.503h-4.531v5.471h4.531c1.972 0 2.909-1.25 2.909-2.752 0-1.5-.938-2.719-2.909-2.719m-.284-9.035h-4.247v5.129h4.247c1.848 0 2.879-1.035 2.879-2.566 0-1.53-1.032-2.563-2.879-2.563m.722 18.383h-9.315v-22.258h8.939c4.346 0 6.877 2.438 6.877 6.252 0 2.469-1.627 4.062-2.748 4.594 1.341.625 3.059 2.033 3.059 5 0 4.162-2.842 6.412-6.812 6.412"/></g><path d="m43.779 92.681v9.158h-2.377v-9.158h-9.164v-2.381h9.164v-9.107h2.377v9.107h9.109v2.381z" fill="#cf0a2c"/></svg>